<svg width="22" height="22" viewBox="0 0 22 22" fill="none" xmlns="http://www.w3.org/2000/svg">
<rect width="22" height="22" rx="11" fill="#D8D8D8"/>
<path d="M7.4609 13.8604C7.27345 14.0479 7.27345 14.3518 7.4609 14.5392C7.64835 14.7267 7.95227 14.7267 8.13972 14.5392L7.4609 13.8604ZM11.3397 11.3392C11.5272 11.1518 11.5272 10.8479 11.3397 10.6604C11.1522 10.473 10.8484 10.473 10.6609 10.6604L11.3397 11.3392ZM10.6609 10.6604C10.4735 10.8479 10.4735 11.1518 10.6609 11.3392C10.8484 11.5267 11.1522 11.5267 11.3397 11.3392L10.6609 10.6604ZM14.5397 8.13923C14.7272 7.95178 14.7272 7.64786 14.5397 7.46041C14.3522 7.27296 14.0484 7.27296 13.8609 7.46041L14.5397 8.13923ZM11.3397 10.6604C11.1522 10.473 10.8484 10.473 10.6609 10.6604C10.4735 10.8479 10.4735 11.1518 10.6609 11.3392L11.3397 10.6604ZM13.8609 14.5392C14.0484 14.7267 14.3522 14.7267 14.5397 14.5392C14.7272 14.3518 14.7272 14.0479 14.5397 13.8604L13.8609 14.5392ZM10.6609 11.3392C10.8484 11.5267 11.1522 11.5267 11.3397 11.3392C11.5272 11.1518 11.5272 10.8479 11.3397 10.6604L10.6609 11.3392ZM8.13972 7.46041C7.95227 7.27296 7.64835 7.27296 7.4609 7.46041C7.27345 7.64786 7.27345 7.95178 7.4609 8.13923L8.13972 7.46041ZM8.13972 14.5392L11.3397 11.3392L10.6609 10.6604L7.4609 13.8604L8.13972 14.5392ZM11.3397 11.3392L14.5397 8.13923L13.8609 7.46041L10.6609 10.6604L11.3397 11.3392ZM10.6609 11.3392L13.8609 14.5392L14.5397 13.8604L11.3397 10.6604L10.6609 11.3392ZM11.3397 10.6604L8.13972 7.46041L7.4609 8.13923L10.6609 11.3392L11.3397 10.6604Z" fill="black"/>
</svg>
